<?xml version="1.0" encoding="utf8" standalone="no"?>
<svg viewBox="0 0 400 400" xmlns="http://www.w3.org/2000/svg" xmlns:xlink="http://www.w3.org/1999/xlink">
<defs>
<filter id="filter3315">
<feGaussianBlur stdDeviation="3.7"/>
</filter>
<linearGradient id="linearGradient3153">
<stop offset="0" stop-color="#fff"/>
<stop offset="1" stop-color="#fff" stop-opacity="0"/>
</linearGradient>
<radialGradient cx="199.28125" cy="192.84375" gradientTransform="matrix(0,2.87286,-1,0,392.84375,-372.50696)" gradientUnits="userSpaceOnUse" id="radialGradient3349" r="53.6875">
<stop offset="0" stop-color="#f7f7f7"/>
<stop offset="1" stop-color="#e1e1e1"/>
</radialGradient>
<radialGradient cx="199.28125" cy="192.84375" gradientTransform="matrix(0,2.77821,-.82388,0,358.87983,-353.64609)" gradientUnits="userSpaceOnUse" id="radialGradient3352" r="68.84375">
<stop offset="0" stop-color="#6c6c6c"/>
<stop offset="1" stop-color="#3e3e3e"/>
</radialGradient>
<radialGradient cx="289.42923" cy="209.66924" gradientTransform="matrix(-.86959,.86959,-1.96149,-1.96149,681.5104,178.1413)" gradientUnits="userSpaceOnUse" id="radialGradient3328" r="92.5" xlink:href="#linearGradient3153"/>
<radialGradient cx="289.42923" cy="209.66924" gradientTransform="matrix(.86959,-.86959,1.96149,1.96149,-281.5104,221.8587)" gradientUnits="userSpaceOnUse" id="radialGradient3331" r="92.5" xlink:href="#linearGradient3153"/>
</defs>
<path d="m202.71429,19c-102.12,0-185,82.88-185,185s82.88,185 185,185 185.00002-82.88 185-185-82.88-185-185-185zm0,179.8125c2.86645,0 5.18749,2.32105 5.1875,5.1875s-2.32105,5.18749-5.1875,5.1875-5.18749-2.32105-5.1875-5.1875 2.32105-5.18749 5.1875-5.1875z" fill-opacity=".50857" fill-rule="evenodd" filter="url(#filter3315)"/>
<path d="m200,15c-102.12,0-185,82.88-185,185s82.88,185 185,185 185.00002-82.88 185-185-82.88-185-185-185zm0,179.8125c2.86645,0 5.18749,2.32105 5.1875,5.1875s-2.32105,5.18749-5.1875,5.1875-5.18749-2.32105-5.1875-5.1875 2.32105-5.18749 5.1875-5.1875z" fill-rule="evenodd"/>
<path d="m200,132.65625c-37.15925,0-67.34375,30.1845-67.34375,67.34375s30.1845,67.34375 67.34375,67.34375 67.34375-30.1845 67.34375-67.34375-30.1845-67.34375-67.34375-67.34375zm0,62.90625c2.45408,0 4.4375,1.98342 4.4375,4.4375s-1.98342,4.4375-4.4375,4.4375-4.4375-1.98342-4.4375-4.4375 1.98342-4.4375 4.4375-4.4375z" fill="#333" fill-rule="evenodd"/>
<path d="m200,15c-102.12,0-185,82.88-185,185s82.88,185 185,185 185.00002-82.88 185-185-82.88-185-185-185zm0,3.59375c100.14858,0 181.4375,81.25768 181.4375,181.40625s-81.28893,181.4375-181.4375,181.4375-181.4375-81.28893-181.4375-181.4375 81.28893-181.40625 181.4375-181.40625z" fill-rule="evenodd"/>
<path d="m293.5625,200c0,51.65143-41.91107,93.59375-93.5625,93.59375v87.84375c100.14857,0 181.43751-81.28892 181.4375-181.4375h-87.875z" fill="url(#radialGradient3331)" fill-rule="evenodd"/>
<path d="m106.4375,200c0-51.65143 41.91107-93.59375 93.5625-93.59375v-87.84375c-100.14857,0-181.43751,81.28892-181.4375,181.4375h87.875z" fill="url(#radialGradient3328)" fill-rule="evenodd"/>
<path d="m248.67988,151.32012c-26.86689-26.86689-70.49287-26.86689-97.35976,0s-26.86689,70.49288 0,97.35977 70.49287,26.86689 97.35976,0 26.86689-70.49288 0-97.35977zm-2.14341,2.14342c25.68403,25.68404 25.68404,67.38891 0,93.07293s-67.38891,25.68405-93.07294,0-25.68402-67.38889 0-93.07293 67.3889-25.68403 93.07294,0z" fill="url(#radialGradient3352)" fill-rule="evenodd"/>
<path d="m237.9628,162.03721c-20.95262-20.9526-54.97299-20.95261-75.9256,0s-20.9526,54.97299 0,75.92559 54.97299,20.95261 75.9256,0 20.9526-54.97298 0-75.92559zm-34.29468,34.29468c2.02688,2.02689 2.02688,5.30934 0,7.33623s-5.30934,2.02688-7.33624,0-2.02688-5.30934 0-7.33623 5.30934-2.02688 7.33624,0z" fill="url(#radialGradient3349)" fill-rule="evenodd"/>
<path d="m243.95111,156.0489c-7.06177-7.06176-15.40617-12.05335-24.2847-15.00392l-1.23744,3.71231c8.31532,2.76444 16.12455,7.46249 22.7379,14.07584 8.05626,8.05626 13.25594,17.88433 15.60055,28.24008l3.82279-.86178c-2.50205-11.05558-8.03761-21.56103-16.6391-30.16253z" fill="#fff" fill-rule="evenodd" opacity=".74257"/>
<path d="m142.61386,190.25519-3.88908-.66291c-3.23715,19.17313 2.53847,39.5732 17.32411,54.35884 14.74595,14.74593 35.07597,20.5264 54.20416,17.34621l-.64082-3.86699c-17.92511,2.98388-36.96183-2.44619-50.7791-16.26346-13.85228-13.85228-19.25338-32.94694-16.21927-50.91169z" fill="#fff" fill-rule="evenodd" opacity=".74257"/>
</svg>
